<svg width="96" height="96" viewBox="0 0 96 96" fill="none" xmlns="http://www.w3.org/2000/svg">
<circle cx="48" cy="48" r="48" fill="white"/>
<path d="M22 18L31.3029 27.2967C35.0707 24.2833 39.6036 22.3793 44.3931 21.7982C49.1827 21.2171 54.0394 21.9819 58.4185 24.0068C62.7976 26.0317 66.5261 29.2367 69.1854 33.2622C71.8448 37.2877 73.3299 41.9746 73.4744 46.7971V47.5558V78L64.184 68.7033C60.4195 71.7202 55.8888 73.6281 51.1003 74.213C46.3118 74.7978 41.4551 74.0364 37.0752 72.0145C32.6953 69.9924 28.9657 66.7896 26.305 62.7657C23.6443 58.7416 22.1578 54.0558 22.0123 49.2338V48.475L22 18ZM28.3603 33.3547V48.4442C28.3617 51.9957 29.3282 55.4804 31.1564 58.5253C32.9846 61.5702 35.6059 64.061 38.74 65.7318C41.8743 67.4024 45.4034 68.1899 48.9504 68.0104C52.4976 67.8307 55.9292 66.6906 58.8786 64.7119L59.3845 64.3665L29.6003 34.5947L28.3603 33.3547ZM36.6083 31.2881L36.1024 31.6397L65.8804 61.4053L67.1141 62.6392V47.5558C67.1134 44.0054 66.1478 40.5218 64.3206 37.4775C62.4935 34.4333 59.8735 31.9427 56.7406 30.2721C53.6076 28.6014 50.0797 27.8134 46.5337 27.9924C42.9878 28.1714 39.557 29.3105 36.6083 31.2881Z" fill="#23262F"/>
</svg>
