
<svg width="25px" height="25px" viewBox="0 0 25 25" version="1.1" xmlns="http://www.w3.org/2000/svg" xmlns:xlink="http://www.w3.org/1999/xlink">
    <g id="Page-1" stroke="none" stroke-width="1" fill="none" fill-rule="evenodd">
        <g id="polygon-matic-logo" fill="white" fill-rule="nonzero" opacity="0.5">
            <path d="M18.5897436,8 C18.1410256,7.71428571 17.5641026,7.71428571 17.0512821,8 L13.4615385,10.3571429 L11.025641,11.8571429 L7.5,14.2142857 C7.05128205,14.5 6.47435897,14.5 5.96153846,14.2142857 L3.20512821,12.3571429 C2.75641026,12.0714286 2.43589744,11.5 2.43589744,10.8571429 L2.43589744,7.28571429 C2.43589744,6.71428571 2.69230769,6.14285714 3.20512821,5.78571429 L5.96153846,4 C6.41025641,3.71428571 6.98717949,3.71428571 7.5,4 L10.2564103,5.85714286 C10.7051282,6.14285714 11.025641,6.71428571 11.025641,7.35714286 L11.025641,9.71428571 L13.4615385,8.14285714 L13.4615385,5.71428571 C13.4615385,5.14285714 13.2051282,4.57142857 12.6923077,4.21428571 L7.56410256,0.857142857 C7.11538462,0.571428571 6.53846154,0.571428571 6.02564103,0.857142857 L0.769230769,4.28571429 C0.256410256,4.57142857 0,5.14285714 0,5.71428571 L0,12.4285714 C0,13 0.256410256,13.5714286 0.769230769,13.9285714 L5.96153846,17.2857143 C6.41025641,17.5714286 6.98717949,17.5714286 7.5,17.2857143 L11.025641,15 L13.4615385,13.4285714 L16.9871795,11.1428571 C17.4358974,10.8571429 18.0128205,10.8571429 18.525641,11.1428571 L21.2820513,12.9285714 C21.7307692,13.2142857 22.0512821,13.7857143 22.0512821,14.4285714 L22.0512821,18 C22.0512821,18.5714286 21.7948718,19.1428571 21.2820513,19.5 L18.5897436,21.2857143 C18.1410256,21.5714286 17.5641026,21.5714286 17.0512821,21.2857143 L14.2948718,19.5 C13.8461538,19.2142857 13.525641,18.6428571 13.525641,18 L13.525641,15.7142857 L11.0897436,17.2857143 L11.0897436,19.6428571 C11.0897436,20.2142857 11.3461538,20.7857143 11.8589744,21.1428571 L17.0512821,24.5 C17.5,24.7857143 18.0769231,24.7857143 18.5897436,24.5 L23.7820513,21.1428571 C24.2307692,20.8571429 24.5512821,20.2857143 24.5512821,19.6428571 L24.5512821,12.8571429 C24.5512821,12.2857143 24.2948718,11.7142857 23.7820513,11.3571429 L18.5897436,8 Z" id="Path"></path>
        </g>
    </g>
</svg>